<svg xmlns="http://www.w3.org/2000/svg" xmlns:xlink="http://www.w3.org/1999/xlink" zoomAndPan="magnify" preserveAspectRatio="xMidYMid meet" version="1.0" viewBox="33.13 169.95 310.01 37.41"><defs><g/></defs><g fill="rgb(12.159729%, 18.818665%, 36.859131%)" fill-opacity="1"><g transform="translate(31.978364, 200.999987)"><g><path d="M 12.59375 6.359375 C 11.019531 6.359375 9.71875 6.101562 8.6875 5.59375 C 7.664062 5.09375 6.863281 4.34375 6.28125 3.34375 C 5.695312 2.34375 5.285156 1.128906 5.046875 -0.296875 C 4.804688 -1.722656 4.6875 -3.367188 4.6875 -5.234375 C 4.6875 -6.617188 4.5 -7.691406 4.125 -8.453125 C 3.75 -9.210938 3.1875 -9.832031 2.4375 -10.3125 L 2.15625 -10.4375 C 1.488281 -10.863281 1.15625 -11.367188 1.15625 -11.953125 L 1.15625 -12.765625 C 1.15625 -13.347656 1.488281 -13.851562 2.15625 -14.28125 L 2.484375 -14.4375 C 3.222656 -14.945312 3.773438 -15.570312 4.140625 -16.3125 C 4.503906 -17.0625 4.6875 -18.117188 4.6875 -19.484375 C 4.6875 -21.347656 4.804688 -22.992188 5.046875 -24.421875 C 5.285156 -25.847656 5.695312 -27.050781 6.28125 -28.03125 C 6.863281 -29.019531 7.664062 -29.769531 8.6875 -30.28125 C 9.71875 -30.789062 11.019531 -31.046875 12.59375 -31.046875 L 12.796875 -31.046875 C 13.066406 -31.046875 13.28125 -30.960938 13.4375 -30.796875 C 13.601562 -30.640625 13.6875 -30.425781 13.6875 -30.15625 L 13.6875 -28.6875 C 13.6875 -28.414062 13.601562 -28.195312 13.4375 -28.03125 C 13.28125 -27.875 13.082031 -27.796875 12.84375 -27.796875 L 12.640625 -27.796875 C 11.359375 -27.773438 10.40625 -27.445312 9.78125 -26.8125 C 9.15625 -26.1875 8.738281 -25.21875 8.53125 -23.90625 C 8.332031 -22.601562 8.234375 -20.875 8.234375 -18.71875 C 8.234375 -17.113281 7.976562 -15.789062 7.46875 -14.75 C 6.96875 -13.71875 6.222656 -12.921875 5.234375 -12.359375 C 5.898438 -12.015625 6.453125 -11.539062 6.890625 -10.9375 C 7.335938 -10.34375 7.671875 -9.628906 7.890625 -8.796875 C 8.117188 -7.972656 8.234375 -7.039062 8.234375 -6 C 8.234375 -3.894531 8.332031 -2.164062 8.53125 -0.8125 C 8.738281 0.53125 9.15625 1.507812 9.78125 2.125 C 10.40625 2.738281 11.359375 3.070312 12.640625 3.125 L 12.84375 3.125 C 13.082031 3.125 13.28125 3.203125 13.4375 3.359375 C 13.601562 3.515625 13.6875 3.726562 13.6875 4 L 13.6875 5.484375 C 13.6875 5.742188 13.601562 5.953125 13.4375 6.109375 C 13.28125 6.273438 13.066406 6.359375 12.796875 6.359375 Z M 12.59375 6.359375 "/></g></g></g><g fill="rgb(12.159729%, 18.818665%, 36.859131%)" fill-opacity="1"><g transform="translate(56.495932, 200.999987)"><g><path d="M 13.5625 0.40625 C 11.101562 0.40625 9.066406 -0.046875 7.453125 -0.953125 C 5.847656 -1.859375 4.628906 -3.125 3.796875 -4.75 C 2.972656 -6.382812 2.519531 -8.28125 2.4375 -10.4375 C 2.414062 -11.53125 2.40625 -12.703125 2.40625 -13.953125 C 2.40625 -15.210938 2.414062 -16.414062 2.4375 -17.5625 C 2.519531 -19.71875 2.972656 -21.609375 3.796875 -23.234375 C 4.628906 -24.867188 5.847656 -26.140625 7.453125 -27.046875 C 9.066406 -27.953125 11.101562 -28.40625 13.5625 -28.40625 C 15.394531 -28.40625 17.003906 -28.148438 18.390625 -27.640625 C 19.785156 -27.128906 20.941406 -26.445312 21.859375 -25.59375 C 22.773438 -24.738281 23.472656 -23.785156 23.953125 -22.734375 C 24.441406 -21.679688 24.710938 -20.597656 24.765625 -19.484375 C 24.785156 -19.242188 24.707031 -19.039062 24.53125 -18.875 C 24.363281 -18.71875 24.160156 -18.640625 23.921875 -18.640625 L 21.71875 -18.640625 C 21.476562 -18.640625 21.269531 -18.707031 21.09375 -18.84375 C 20.925781 -18.976562 20.800781 -19.21875 20.71875 -19.5625 C 20.269531 -21.644531 19.421875 -23.070312 18.171875 -23.84375 C 16.929688 -24.613281 15.394531 -25 13.5625 -25 C 11.394531 -25 9.6875 -24.390625 8.4375 -23.171875 C 7.1875 -21.960938 6.519531 -20.023438 6.4375 -17.359375 C 6.351562 -15.171875 6.351562 -12.929688 6.4375 -10.640625 C 6.519531 -7.972656 7.1875 -6.03125 8.4375 -4.8125 C 9.6875 -3.601562 11.394531 -3 13.5625 -3 C 15.394531 -3 16.929688 -3.382812 18.171875 -4.15625 C 19.421875 -4.925781 20.269531 -6.351562 20.71875 -8.4375 C 20.800781 -8.78125 20.925781 -9.019531 21.09375 -9.15625 C 21.269531 -9.289062 21.476562 -9.359375 21.71875 -9.359375 L 23.921875 -9.359375 C 24.160156 -9.359375 24.363281 -9.285156 24.53125 -9.140625 C 24.707031 -8.992188 24.785156 -8.800781 24.765625 -8.5625 C 24.710938 -7.4375 24.441406 -6.34375 23.953125 -5.28125 C 23.472656 -4.21875 22.773438 -3.257812 21.859375 -2.40625 C 20.941406 -1.550781 19.785156 -0.867188 18.390625 -0.359375 C 17.003906 0.148438 15.394531 0.40625 13.5625 0.40625 Z M 13.5625 0.40625 "/></g></g></g><g fill="rgb(12.159729%, 18.818665%, 36.859131%)" fill-opacity="1"><g transform="translate(83.13329, 200.999987)"><g><path d="M 4.40625 0 C 4.101562 0 3.875 -0.0820312 3.71875 -0.25 C 3.5625 -0.425781 3.484375 -0.648438 3.484375 -0.921875 L 3.484375 -27.046875 C 3.484375 -27.335938 3.5625 -27.566406 3.71875 -27.734375 C 3.875 -27.910156 4.101562 -28 4.40625 -28 L 6.4375 -28 C 6.726562 -28 6.960938 -27.910156 7.140625 -27.734375 C 7.316406 -27.566406 7.40625 -27.335938 7.40625 -27.046875 L 7.40625 -16 L 21.15625 -16 L 21.15625 -27.046875 C 21.15625 -27.335938 21.242188 -27.566406 21.421875 -27.734375 C 21.597656 -27.910156 21.816406 -28 22.078125 -28 L 24.125 -28 C 24.414062 -28 24.644531 -27.910156 24.8125 -27.734375 C 24.988281 -27.566406 25.078125 -27.335938 25.078125 -27.046875 L 25.078125 -0.921875 C 25.078125 -0.648438 24.988281 -0.425781 24.8125 -0.25 C 24.644531 -0.0820312 24.414062 0 24.125 0 L 22.078125 0 C 21.816406 0 21.597656 -0.0820312 21.421875 -0.25 C 21.242188 -0.425781 21.15625 -0.648438 21.15625 -0.921875 L 21.15625 -12.40625 L 7.40625 -12.40625 L 7.40625 -0.921875 C 7.40625 -0.648438 7.316406 -0.425781 7.140625 -0.25 C 6.960938 -0.0820312 6.726562 0 6.4375 0 Z M 4.40625 0 "/></g></g></g><g fill="rgb(12.159729%, 18.818665%, 36.859131%)" fill-opacity="1"><g transform="translate(111.690452, 200.999987)"><g><path d="M 4.40625 0 C 4.101562 0 3.875 -0.0820312 3.71875 -0.25 C 3.5625 -0.425781 3.484375 -0.648438 3.484375 -0.921875 L 3.484375 -27.078125 C 3.484375 -27.347656 3.5625 -27.566406 3.71875 -27.734375 C 3.875 -27.910156 4.101562 -28 4.40625 -28 L 6.515625 -28 C 6.804688 -28 7.03125 -27.910156 7.1875 -27.734375 C 7.351562 -27.566406 7.4375 -27.347656 7.4375 -27.078125 L 7.4375 -0.921875 C 7.4375 -0.648438 7.351562 -0.425781 7.1875 -0.25 C 7.03125 -0.0820312 6.804688 0 6.515625 0 Z M 4.40625 0 "/></g></g></g><g fill="rgb(12.159729%, 18.818665%, 36.859131%)" fill-opacity="1"><g transform="translate(122.609362, 200.999987)"><g><path d="M 4.40625 0 C 4.101562 0 3.875 -0.0820312 3.71875 -0.25 C 3.5625 -0.425781 3.484375 -0.648438 3.484375 -0.921875 L 3.484375 -27.046875 C 3.484375 -27.335938 3.5625 -27.566406 3.71875 -27.734375 C 3.875 -27.910156 4.101562 -28 4.40625 -28 L 6.234375 -28 C 6.554688 -28 6.796875 -27.925781 6.953125 -27.78125 C 7.117188 -27.632812 7.210938 -27.519531 7.234375 -27.4375 L 20.515625 -7.046875 L 20.515625 -27.046875 C 20.515625 -27.335938 20.59375 -27.566406 20.75 -27.734375 C 20.914062 -27.910156 21.144531 -28 21.4375 -28 L 23.359375 -28 C 23.648438 -28 23.878906 -27.910156 24.046875 -27.734375 C 24.222656 -27.566406 24.3125 -27.335938 24.3125 -27.046875 L 24.3125 -0.953125 C 24.3125 -0.691406 24.222656 -0.46875 24.046875 -0.28125 C 23.878906 -0.09375 23.664062 0 23.40625 0 L 21.484375 0 C 21.191406 0 20.96875 -0.078125 20.8125 -0.234375 C 20.664062 -0.398438 20.566406 -0.507812 20.515625 -0.5625 L 7.28125 -20.765625 L 7.28125 -0.921875 C 7.28125 -0.648438 7.191406 -0.425781 7.015625 -0.25 C 6.847656 -0.0820312 6.613281 0 6.3125 0 Z M 4.40625 0 "/></g></g></g><g fill="rgb(12.159729%, 18.818665%, 36.859131%)" fill-opacity="1"><g transform="translate(150.406601, 200.999987)"><g><path d="M 14.046875 0.40625 C 11.804688 0.40625 9.878906 0.00390625 8.265625 -0.796875 C 6.648438 -1.597656 5.40625 -2.816406 4.53125 -4.453125 C 3.664062 -6.097656 3.234375 -8.210938 3.234375 -10.796875 L 3.234375 -27.046875 C 3.234375 -27.335938 3.3125 -27.566406 3.46875 -27.734375 C 3.632812 -27.910156 3.863281 -28 4.15625 -28 L 6.203125 -28 C 6.492188 -28 6.722656 -27.910156 6.890625 -27.734375 C 7.066406 -27.566406 7.15625 -27.335938 7.15625 -27.046875 L 7.15625 -10.71875 C 7.15625 -8.101562 7.769531 -6.171875 9 -4.921875 C 10.226562 -3.671875 11.910156 -3.046875 14.046875 -3.046875 C 16.148438 -3.046875 17.820312 -3.671875 19.0625 -4.921875 C 20.300781 -6.171875 20.921875 -8.101562 20.921875 -10.71875 L 20.921875 -27.046875 C 20.921875 -27.335938 21.003906 -27.566406 21.171875 -27.734375 C 21.347656 -27.910156 21.570312 -28 21.84375 -28 L 23.921875 -28 C 24.179688 -28 24.398438 -27.910156 24.578125 -27.734375 C 24.753906 -27.566406 24.84375 -27.335938 24.84375 -27.046875 L 24.84375 -10.796875 C 24.84375 -8.210938 24.40625 -6.097656 23.53125 -4.453125 C 22.664062 -2.816406 21.429688 -1.597656 19.828125 -0.796875 C 18.234375 0.00390625 16.304688 0.40625 14.046875 0.40625 Z M 14.046875 0.40625 "/></g></g></g><g fill="rgb(31.369019%, 44.709778%, 65.489197%)" fill-opacity="1"><g transform="translate(186.758912, 200.999987)"><g><path d="M 1.765625 0 C 1.546875 0 1.351562 -0.078125 1.1875 -0.234375 C 1.03125 -0.398438 0.953125 -0.585938 0.953125 -0.796875 L 1.046875 -1.234375 L 11.15625 -27.203125 C 11.375 -27.734375 11.757812 -28 12.3125 -28 L 13.6875 -28 C 14.238281 -28 14.625 -27.734375 14.84375 -27.203125 L 24.953125 -1.234375 L 25.046875 -0.796875 C 25.046875 -0.585938 24.960938 -0.398438 24.796875 -0.234375 C 24.640625 -0.078125 24.453125 0 24.234375 0 L 23.4375 0 C 23.195312 0 23.003906 -0.0664062 22.859375 -0.203125 C 22.710938 -0.335938 22.613281 -0.46875 22.5625 -0.59375 L 20.078125 -7 L 5.921875 -7 L 3.4375 -0.59375 C 3.382812 -0.46875 3.285156 -0.335938 3.140625 -0.203125 C 2.992188 -0.0664062 2.800781 0 2.5625 0 Z M 6.875 -9.40625 L 19.125 -9.40625 L 13 -25.15625 Z M 6.875 -9.40625 "/></g></g></g><g fill="rgb(31.369019%, 44.709778%, 65.489197%)" fill-opacity="1"><g transform="translate(212.756328, 200.999987)"><g><path d="M 4.640625 0 C 4.367188 0 4.15625 -0.078125 4 -0.234375 C 3.84375 -0.398438 3.765625 -0.613281 3.765625 -0.875 L 3.765625 -27.078125 C 3.765625 -27.347656 3.84375 -27.566406 4 -27.734375 C 4.15625 -27.910156 4.367188 -28 4.640625 -28 L 5.484375 -28 C 5.828125 -28 6.101562 -27.835938 6.3125 -27.515625 L 21.078125 -4.953125 L 21.078125 -27.078125 C 21.078125 -27.347656 21.15625 -27.566406 21.3125 -27.734375 C 21.476562 -27.910156 21.691406 -28 21.953125 -28 L 22.6875 -28 C 22.976562 -28 23.203125 -27.914062 23.359375 -27.75 C 23.515625 -27.59375 23.59375 -27.367188 23.59375 -27.078125 L 23.59375 -0.921875 C 23.59375 -0.648438 23.515625 -0.425781 23.359375 -0.25 C 23.203125 -0.0820312 22.988281 0 22.71875 0 L 21.84375 0 C 21.488281 0 21.207031 -0.160156 21 -0.484375 L 6.28125 -22.953125 L 6.28125 -0.875 C 6.28125 -0.613281 6.191406 -0.398438 6.015625 -0.234375 C 5.847656 -0.078125 5.628906 0 5.359375 0 Z M 4.640625 0 "/></g></g></g><g fill="rgb(31.369019%, 44.709778%, 65.489197%)" fill-opacity="1"><g transform="translate(240.11361, 200.999987)"><g><path d="M 1.765625 0 C 1.546875 0 1.351562 -0.078125 1.1875 -0.234375 C 1.03125 -0.398438 0.953125 -0.585938 0.953125 -0.796875 L 1.046875 -1.234375 L 11.15625 -27.203125 C 11.375 -27.734375 11.757812 -28 12.3125 -28 L 13.6875 -28 C 14.238281 -28 14.625 -27.734375 14.84375 -27.203125 L 24.953125 -1.234375 L 25.046875 -0.796875 C 25.046875 -0.585938 24.960938 -0.398438 24.796875 -0.234375 C 24.640625 -0.078125 24.453125 0 24.234375 0 L 23.4375 0 C 23.195312 0 23.003906 -0.0664062 22.859375 -0.203125 C 22.710938 -0.335938 22.613281 -0.46875 22.5625 -0.59375 L 20.078125 -7 L 5.921875 -7 L 3.4375 -0.59375 C 3.382812 -0.46875 3.285156 -0.335938 3.140625 -0.203125 C 2.992188 -0.0664062 2.800781 0 2.5625 0 Z M 6.875 -9.40625 L 19.125 -9.40625 L 13 -25.15625 Z M 6.875 -9.40625 "/></g></g></g><g fill="rgb(31.369019%, 44.709778%, 65.489197%)" fill-opacity="1"><g transform="translate(266.111026, 200.999987)"><g><path d="M 4.640625 0 C 4.367188 0 4.15625 -0.078125 4 -0.234375 C 3.84375 -0.398438 3.765625 -0.613281 3.765625 -0.875 L 3.765625 -27.078125 C 3.765625 -27.347656 3.84375 -27.566406 4 -27.734375 C 4.15625 -27.910156 4.367188 -28 4.640625 -28 L 5.484375 -28 C 5.828125 -28 6.101562 -27.835938 6.3125 -27.515625 L 21.078125 -4.953125 L 21.078125 -27.078125 C 21.078125 -27.347656 21.15625 -27.566406 21.3125 -27.734375 C 21.476562 -27.910156 21.691406 -28 21.953125 -28 L 22.6875 -28 C 22.976562 -28 23.203125 -27.914062 23.359375 -27.75 C 23.515625 -27.59375 23.59375 -27.367188 23.59375 -27.078125 L 23.59375 -0.921875 C 23.59375 -0.648438 23.515625 -0.425781 23.359375 -0.25 C 23.203125 -0.0820312 22.988281 0 22.71875 0 L 21.84375 0 C 21.488281 0 21.207031 -0.160156 21 -0.484375 L 6.28125 -22.953125 L 6.28125 -0.875 C 6.28125 -0.613281 6.191406 -0.398438 6.015625 -0.234375 C 5.847656 -0.078125 5.628906 0 5.359375 0 Z M 4.640625 0 "/></g></g></g><g fill="rgb(31.369019%, 44.709778%, 65.489197%)" fill-opacity="1"><g transform="translate(293.468308, 200.999987)"><g><path d="M 4.640625 0 C 4.367188 0 4.15625 -0.078125 4 -0.234375 C 3.84375 -0.398438 3.765625 -0.613281 3.765625 -0.875 L 3.765625 -27.078125 C 3.765625 -27.347656 3.84375 -27.566406 4 -27.734375 C 4.15625 -27.910156 4.367188 -28 4.640625 -28 L 13.15625 -28 C 15.925781 -28 18.117188 -27.59375 19.734375 -26.78125 C 21.347656 -25.96875 22.492188 -24.773438 23.171875 -23.203125 C 23.859375 -21.628906 24.226562 -19.628906 24.28125 -17.203125 C 24.300781 -16.398438 24.3125 -15.347656 24.3125 -14.046875 C 24.3125 -12.710938 24.300781 -11.644531 24.28125 -10.84375 C 24.226562 -8.28125 23.859375 -6.21875 23.171875 -4.65625 C 22.492188 -3.09375 21.367188 -1.925781 19.796875 -1.15625 C 18.222656 -0.382812 16.078125 0 13.359375 0 Z M 13.15625 -2.40625 C 15.289062 -2.40625 16.972656 -2.691406 18.203125 -3.265625 C 19.429688 -3.835938 20.316406 -4.742188 20.859375 -5.984375 C 21.410156 -7.222656 21.710938 -8.910156 21.765625 -11.046875 C 21.785156 -11.835938 21.796875 -12.835938 21.796875 -14.046875 C 21.796875 -15.210938 21.785156 -16.195312 21.765625 -17 C 21.710938 -19.988281 21.007812 -22.164062 19.65625 -23.53125 C 18.3125 -24.90625 16.078125 -25.59375 12.953125 -25.59375 L 6.28125 -25.59375 L 6.28125 -2.40625 Z M 13.15625 -2.40625 "/></g></g></g><g fill="rgb(31.369019%, 44.709778%, 65.489197%)" fill-opacity="1"><g transform="translate(330.864599, 200.999987)"><g><path d="M 2.15625 -31.046875 C 4.15625 -31.046875 5.640625 -30.601562 6.609375 -29.71875 C 7.585938 -28.84375 8.207031 -27.625 8.46875 -26.0625 C 8.738281 -24.5 8.875 -22.289062 8.875 -19.4375 C 8.875 -18 9.046875 -16.898438 9.390625 -16.140625 C 9.742188 -15.378906 10.320312 -14.71875 11.125 -14.15625 L 11.3125 -14.046875 C 11.6875 -13.804688 11.941406 -13.578125 12.078125 -13.359375 C 12.210938 -13.148438 12.28125 -12.882812 12.28125 -12.5625 L 12.28125 -12.078125 C 12.28125 -11.753906 12.210938 -11.484375 12.078125 -11.265625 C 11.941406 -11.054688 11.6875 -10.832031 11.3125 -10.59375 L 11.078125 -10.4375 C 10.304688 -9.875 9.742188 -9.21875 9.390625 -8.46875 C 9.046875 -7.726562 8.875 -6.640625 8.875 -5.203125 C 8.875 -2.367188 8.738281 -0.164062 8.46875 1.40625 C 8.207031 2.976562 7.585938 4.195312 6.609375 5.0625 C 5.640625 5.925781 4.15625 6.359375 2.15625 6.359375 L 1.953125 6.359375 C 1.691406 6.359375 1.476562 6.273438 1.3125 6.109375 C 1.15625 5.953125 1.078125 5.742188 1.078125 5.484375 L 1.078125 4.921875 C 1.078125 4.648438 1.15625 4.4375 1.3125 4.28125 C 1.476562 4.125 1.691406 4.046875 1.953125 4.046875 L 2.15625 4.046875 C 3.488281 4.046875 4.453125 3.710938 5.046875 3.046875 C 5.648438 2.378906 6.03125 1.390625 6.1875 0.078125 C 6.351562 -1.222656 6.4375 -3.265625 6.4375 -6.046875 C 6.4375 -7.585938 6.675781 -8.863281 7.15625 -9.875 C 7.632812 -10.894531 8.394531 -11.707031 9.4375 -12.3125 C 8.394531 -12.925781 7.632812 -13.738281 7.15625 -14.75 C 6.675781 -15.769531 6.4375 -17.050781 6.4375 -18.59375 C 6.4375 -21.375 6.351562 -23.421875 6.1875 -24.734375 C 6.03125 -26.054688 5.648438 -27.050781 5.046875 -27.71875 C 4.453125 -28.382812 3.488281 -28.71875 2.15625 -28.71875 L 1.953125 -28.71875 C 1.691406 -28.71875 1.476562 -28.796875 1.3125 -28.953125 C 1.15625 -29.117188 1.078125 -29.332031 1.078125 -29.59375 L 1.078125 -30.15625 C 1.078125 -30.425781 1.15625 -30.640625 1.3125 -30.796875 C 1.476562 -30.960938 1.691406 -31.046875 1.953125 -31.046875 Z M 2.15625 -31.046875 "/></g></g></g></svg>